<svg xmlns="http://www.w3.org/2000/svg" xmlns:xlink="http://www.w3.org/1999/xlink" preserveAspectRatio="xMidYMid meet" version="1.0" viewBox="1.7 7.0 60.3 51.0" zoomAndPan="magnify" style="fill: rgb(250, 251, 99);" original_string_length="3122"><g><g id="__id473_sa3ll0enaf"><path d="M17,44h-7c-0.552,0-1,0.448-1,1v3c0,0.552,0.448,1,1,1h7c0.552,0,1-0.448,1-1v-3C18,44.448,17.552,44,17,44z M16,47h-5v-1 h5V47z" style="fill: inherit;"/><path d="M46,44h-7c-0.552,0-1,0.448-1,1v3c0,0.552,0.448,1,1,1h7c0.552,0,1-0.448,1-1v-3C47,44.448,46.552,44,46,44z M45,47h-5v-1 h5V47z" style="fill: inherit;"/><path d="M30.889,40.532h-2.812v-1.859c0-0.426-0.27-0.805-0.672-0.945c-0.402-0.139-0.849-0.01-1.113,0.326l-4.135,5.241 c-0.237,0.301-0.282,0.71-0.115,1.055c0.167,0.345,0.517,0.564,0.9,0.564h1.189l-1.773,3.82c-0.204,0.439-0.063,0.963,0.334,1.241 c0.173,0.121,0.373,0.18,0.572,0.18c0.258,0,0.514-0.1,0.708-0.293l7.623-7.623c0.286-0.286,0.372-0.716,0.217-1.09 C31.658,40.775,31.293,40.532,30.889,40.532z M26.55,44.457l0.057-0.122c0.144-0.31,0.12-0.671-0.064-0.959 c-0.184-0.288-0.501-0.462-0.843-0.462h-0.694l1.073-1.359c0.012,0.542,0.455,0.977,1,0.977h1.397L26.55,44.457z" style="fill: inherit;"/><path d="M61,11h-2V8c0-0.552-0.448-1-1-1s-1,0.448-1,1v3h-2V8c0-0.552-0.448-1-1-1s-1,0.448-1,1v3h-2.128c-0.552,0-1,0.448-1,1 v2.375c0,2.989,2.2,5.468,5.064,5.919v22.462c0,2.409-1.715,4.423-3.989,4.888V44c0-1.131-0.219-2.21-0.602-3.209l2.701-2.701 c0.549-0.549,0.852-1.279,0.852-2.055c0-0.776-0.303-1.506-0.852-2.055c-1.132-1.132-2.976-1.133-4.109,0l-2.333,2.333 c-0.145-0.088-0.289-0.178-0.439-0.258c0.005-0.097,0.012-0.194-0.012-0.293l-1.888-7.707C43.536,25.079,40.781,23,37.564,23 H18.497c-3.216,0-5.972,2.079-6.702,5.055l-1.888,7.707c-0.024,0.099-0.018,0.196-0.012,0.293c-0.185,0.099-0.363,0.209-0.54,0.32 L6.96,33.981c-1.133-1.133-2.977-1.133-4.109,0c-1.133,1.132-1.133,2.976,0,4.109l2.821,2.82C5.317,41.876,5.114,42.913,5.114,44 v8.014V55c0,1.654,1.346,3,3,3h6.482c1.654,0,3-1.346,3-3v-1.986h20.87V55c0,1.654,1.346,3,3,3h6.482c1.654,0,3-1.346,3-3v-2.986 v-2.348c3.38-0.488,5.989-3.396,5.989-6.909V20.295C59.8,19.843,62,17.365,62,14.375V12C62,11.448,61.552,11,61,11z M16.596,51.014H7.114V44c0-3.86,3.14-7,7-7h27.833c3.86,0,7,3.14,7,7v7.014h-9.482H16.596z M50.352,35.395 c0.354-0.353,0.927-0.353,1.281,0c0.171,0.171,0.266,0.398,0.266,0.64c0,0.242-0.094,0.469-0.266,0.641l-2.255,2.255 c-0.344-0.502-0.739-0.965-1.175-1.388L50.352,35.395z M42.323,28.531l1.643,6.706C43.316,35.087,42.642,35,41.947,35H29.031V25 h8.534C39.857,25,41.814,26.452,42.323,28.531z M13.738,28.531C14.248,26.452,16.205,25,18.497,25h8.534v10H14.114 c-0.695,0-1.369,0.087-2.019,0.237L13.738,28.531z M4.266,36.676c-0.354-0.354-0.354-0.928,0-1.281 c0.354-0.354,0.928-0.354,1.281,0l2.226,2.226c-0.431,0.428-0.817,0.9-1.154,1.408L4.266,36.676z M15.596,55c0,0.551-0.449,1-1,1 H8.114c-0.551,0-1-0.449-1-1v-1.986h8.482V55z M48.947,55c0,0.551-0.449,1-1,1h-6.482c-0.551,0-1-0.449-1-1v-1.986h8.482V55z M60,14.375c0,2.206-1.794,4-4,4h-0.128c-2.206,0-4-1.794-4-4V13H60V14.375z" style="fill: inherit;"/></g></g></svg>