<svg width="1000" height="222" viewBox="0 0 1000 222" fill="none" xmlns="http://www.w3.org/2000/svg">
<g clip-path="url(#clip0_537_284)">
<path d="M23.1826 221.169H146.001C155.967 221.216 165.78 218.718 174.51 213.911C183.241 209.105 190.6 202.149 195.89 193.703L294.405 34.135C303.672 19.1162 292.56 0.000578872 274.561 0.000578872H150.92C141.201 -0.0431772 131.632 2.39434 123.119 7.08235C114.605 11.7704 107.429 18.5537 102.269 26.7902L3.33939 187.086C-5.92827 202.053 5.19292 221.169 23.1826 221.169Z" fill="url(#paint0_linear_537_284)"/>
</g>
<g clip-path="url(#clip1_537_284)">
<path d="M374.325 221.169H497.143C507.109 221.216 516.922 218.718 525.653 213.911C534.383 209.105 541.742 202.149 547.033 193.703L645.547 34.135C654.815 19.1162 643.702 0.000578872 625.704 0.000578872H502.063C492.344 -0.0431772 482.775 2.39434 474.261 7.08235C465.748 11.7704 458.571 18.5537 453.412 26.7902L354.482 187.086C345.214 202.053 356.335 221.169 374.325 221.169Z" fill="url(#paint1_linear_537_284)"/>
</g>
<g clip-path="url(#clip2_537_284)">
<path d="M725.438 221.169H848.257C858.223 221.216 868.036 218.718 876.766 213.911C885.497 209.105 892.856 202.149 898.146 193.703L996.66 34.135C1005.93 19.1162 994.816 0.000578872 976.817 0.000578872H853.176C843.457 -0.0431772 833.888 2.39434 825.375 7.08235C816.861 11.7704 809.685 18.5537 804.525 26.7902L705.595 187.086C696.328 202.053 707.449 221.169 725.438 221.169Z" fill="url(#paint2_linear_537_284)"/>
</g>
<defs>
<linearGradient id="paint0_linear_537_284" x1="-0.00390091" y1="110.589" x2="297.739" y2="110.589" gradientUnits="userSpaceOnUse">
<stop stop-color="#6BFFF7"/>
<stop offset="1" stop-color="white"/>
</linearGradient>
<linearGradient id="paint1_linear_537_284" x1="351.139" y1="110.589" x2="648.882" y2="110.589" gradientUnits="userSpaceOnUse">
<stop stop-color="#6BFFF7"/>
<stop offset="1" stop-color="white"/>
</linearGradient>
<linearGradient id="paint2_linear_537_284" x1="702.252" y1="110.589" x2="999.995" y2="110.589" gradientUnits="userSpaceOnUse">
<stop stop-color="#FAFB63"/>
<stop offset="1" stop-color="white"/>
</linearGradient>
<clipPath id="clip0_537_284">
<rect width="297.743" height="221.168" fill="white"/>
</clipPath>
<clipPath id="clip1_537_284">
<rect width="297.743" height="221.168" fill="white" transform="translate(351.129)"/>
</clipPath>
<clipPath id="clip2_537_284">
<rect width="297.743" height="221.168" fill="white" transform="translate(702.258)"/>
</clipPath>
</defs>
</svg>
