<?xml version="1.0" encoding="utf-8"?>
<!-- Generator: Adobe Illustrator 26.0.1, SVG Export Plug-In . SVG Version: 6.00 Build 0)  -->
<svg version="1.1" id="Layer_1" xmlns="http://www.w3.org/2000/svg" xmlns:xlink="http://www.w3.org/1999/xlink" x="0px" y="0px"
	 viewBox="0 0 1526 283.5" style="enable-background:new 0 0 1526 283.5;" xml:space="preserve">
<style type="text/css">
	.st0{fill:#FAFB63;}
	.st1{fill:url(#SVGID_1_);}
	.st2{fill:url(#SVGID_00000094617460905712246580000010233778230391221655_);}
	.st3{fill:url(#SVGID_00000044866531459305027600000018050962875794525572_);}
</style>
<g id="XMLID_00000059309942809982349580000014609932275469570447_">
	<g>
		<polygon class="st0" points="1416.5,151.1 1416.5,201.3 1497.9,201.3 1497.9,220.2 1397.6,220.2 1397.6,63.3 1497.9,63.3 
			1497.9,82.1 1416.5,82.1 1416.5,132.3 1478,132.3 1478,151.1 		"/>
		<path class="st0" d="M1338.8,134.1V89l-6.4-6.9h-66V144h63.6L1338.8,134.1z M1357.7,79.4v58.3l-13.7,15.4l13.7,15.7v51.4h-18.9
			v-47.8l-8.7-9.6h-63.6v57.4h-18.9V63.3h95.7L1357.7,79.4z"/>
		<path class="st0" d="M1187.4,148.4V89l-6.3-6.9h-59.9L1115,89v59.4H1187.4z M1096.1,220.2V79.4l14.3-16.1h81.4l14.5,16.1v140.8
			h-18.9v-52.9H1115v52.9H1096.1z"/>
		<polygon class="st0" points="944.7,220.2 944.7,63.3 963.6,63.3 963.6,132.3 1036,132.3 1036,63.3 1054.9,63.3 1054.9,220.2 
			1036,220.2 1036,151.1 963.6,151.1 963.6,220.2 		"/>
		<polygon class="st0" points="887.7,156.7 881.5,149.8 810.9,149.8 796.5,133.5 796.5,79.4 810.9,63.3 892.2,63.3 906.6,79.4 
			906.6,110.1 887.7,110.1 887.7,89 881.5,82.1 821.6,82.1 815.4,89 815.4,124 821.6,131 892.2,131 906.6,148 906.6,203.8 
			892.2,220.2 810.9,220.2 796.5,203.8 796.5,173.3 815.4,173.3 815.4,194.4 821.6,201.3 881.5,201.3 887.7,194.4 		"/>
		<rect x="695.9" y="144.4" class="st0" width="65.9" height="17.1"/>
		<polygon class="st0" points="547.7,177.3 547.7,63.3 566.6,63.3 566.6,170.2 594.3,201.3 611.4,201.3 639,170.2 639,63.3 
			657.9,63.3 657.9,177.3 619.7,220.2 585.7,220.2 		"/>
		<polygon class="st0" points="495.6,132.3 495.6,151.1 434.2,151.1 434.2,201.3 515.5,201.3 515.5,220.2 415.3,220.2 415.3,63.3 
			515.5,63.3 515.5,82.1 434.2,82.1 434.2,132.3 		"/>
		<linearGradient id="SVGID_1_" gradientUnits="userSpaceOnUse" x1="28.1096" y1="94.4796" x2="282.5039" y2="94.4796">
			<stop  offset="0" style="stop-color:#6BFFF7"/>
			<stop  offset="1" style="stop-color:#FAFB63"/>
		</linearGradient>
		<path class="st1" d="M279.6,29.2l-40.3,65.3h-54c-8.3,0-16.5,2-23.8,6s-13.4,9.8-17.8,16.9L99.6,189H47.9
			c-15.4,0-24.9-16.3-17-29.1l84.5-137c4.4-7,10.5-12.9,17.8-16.9c7.3-4,15.4-6.1,23.8-6h105.6C278.1,0,287.6,16.3,279.6,29.2z"/>
		
			<linearGradient id="SVGID_00000164515643025036815640000004402664959614867348_" gradientUnits="userSpaceOnUse" x1="28.1" y1="141.7239" x2="282.5067" y2="141.7239">
			<stop  offset="0" style="stop-color:#6BFFF7"/>
			<stop  offset="1" style="stop-color:#FAFB63"/>
		</linearGradient>
		<path style="fill:url(#SVGID_00000164515643025036815640000004402664959614867348_);" d="M152.8,189H99.6l44.2-71.6
			c4.4-7,10.5-12.9,17.8-16.9s15.4-6.1,23.8-6h54l-43.8,71c-4.5,7.2-10.8,13.2-18.3,17.3C169.8,186.9,161.4,189,152.8,189z"/>
		
			<linearGradient id="SVGID_00000047041796459481133470000003631821479912793762_" gradientUnits="userSpaceOnUse" x1="56.4559" y1="188.9682" x2="310.8503" y2="188.9682">
			<stop  offset="0" style="stop-color:#6BFFF7"/>
			<stop  offset="1" style="stop-color:#FAFB63"/>
		</linearGradient>
		<path style="fill:url(#SVGID_00000047041796459481133470000003631821479912793762_);" d="M195.5,165.5l43.8-71H291
			c15.4,0,24.9,16.3,17,29.2L223.8,260c-4.5,7.2-10.8,13.2-18.3,17.3c-7.5,4.1-15.8,6.2-24.4,6.2H76.3c-15.4,0-24.9-16.3-17-29.1
			L99.6,189h53.2c8.6,0,16.9-2.1,24.4-6.2C184.7,178.7,191,172.7,195.5,165.5z"/>
	</g>
	<g>
	</g>
</g>
</svg>
